<svg width="163" height="159" viewBox="0 0 163 159" fill="none" xmlns="http://www.w3.org/2000/svg">
<path d="M0.0100708 61.1474L80.8315 85.7811L162.782 61.7249V131.013L80.7603 158.387L0.0100789 131.036L0.0100708 61.1474Z" fill="#9A6B23"/>
<path d="M76.0074 84.5972L81.0074 85.8705L86.0074 84.5972V157.172L81.0074 158.445L76.0074 157.172V84.5972Z" fill="#2E2A25"/>
<path d="M70.0677 37.9071L76.6755 35.8878L84.5677 37.9071L162.858 61.8446L80.754 86.5183L0 61.1674L70.0677 37.9071Z" fill="#2E2A25"/>
<path d="M70.0056 2.20887L76.6133 0.189531L84.5056 2.20887L162.734 25.7089L80.5056 50.7089L0.0055542 25.7089L70.0056 2.20887Z" fill="#9A6B23"/>
<path d="M0.00747681 61.1305L81.0075 86.3805L162.805 61.8159L162.576 71.5135L81.0075 97.6305L0.00747681 71.3805V61.1305Z" fill="#2E2A25"/>
<path d="M0.00985718 62.0615L81.2106 86.0194L162.807 62.1087V71.1942L81.2106 97.2694L0.0098687 70.8685L0.00985718 62.0615Z" fill="#2E2A25"/>
<path d="M0.0427551 25.7089L80.739 50.2089L162.502 25.7805V62.1057L80.739 86.2922L0.0427551 62.1057V25.7089Z" fill="#9A6B23"/>
<path d="M85.8992 51.7638L85.8992 49.4404L85.8992 44.5062L160.009 24.9141L162.741 25.7064L162.79 29.7537L85.8992 51.7638Z" fill="#2E2A25"/>
<path d="M76.1071 51.8187L76.1071 49.5062L76.1071 44.5463L2.04583 25.0201L0.0247954 25.6899L0.024792 29.7543L76.1071 51.8187Z" fill="#2E2A25"/>
<path d="M85.9011 157.199L85.9011 151.407L85.9011 150L160.011 126.881L162.743 127.673L162.792 131.721L85.9011 157.199Z" fill="#2E2A25"/>
<path d="M76.109 157.201L76.109 151.473L76.109 150.077L2.01684 126.975L0.0173873 127.657L0.0173905 131.654L76.109 157.201Z" fill="#2E2A25"/>
<path d="M76.0629 44.5535L81.0187 45.7565L85.9998 44.5535V84.9287L80.7332 86.6989L76.0629 84.9287L76.0629 44.5535Z" fill="#2E2A25"/>
<path d="M158.082 63.1459L162.796 61.7108L162.796 131.56L158.082 132.709V120.387V63.1459Z" fill="#2E2A25"/>
<path d="M158.08 29.457L162.794 28.7746L162.794 61.9918L158.08 63.4609V56.6785V29.457Z" fill="#2E2A25"/>
<path d="M4.45532 63.043L0.00833416 61.6495V131.643L4.45532 132.64V114.721L4.45532 63.043Z" fill="#2E2A25"/>
<path d="M4.45339 30.8792L0.0296006 29.6535L0.0296178 62.0438L4.4534 63.6123L4.45339 30.8792Z" fill="#2E2A25"/>
<path d="M76.4767 4.78056L76.5826 -3.69778e-06L1.58922 25.1742L1.51374 30.1756L76.4767 4.78056Z" fill="#2E2A25"/>
<path d="M76.4514 4.76714L76.5826 2.05341e-05L87.0876 2.84689L97.6055 6.02738L118.586 12.3884L160.499 25.0414L160.574 30.0428L76.4514 4.76714Z" fill="#2E2A25"/>
<path d="M30.498 71.8605L39.6799 72.4199L38.2556 95.7994L29.0737 95.24L30.498 71.8605Z" fill="#888885"/>
<path d="M34.4498 69.7721L43.5889 70.3289L39.6972 72.4209L30.538 71.8629L34.4498 69.7721Z" fill="#888885"/>
<path d="M39.6798 72.4199L43.5889 70.3289L42.0184 96.1083L38.2507 95.8788L39.6798 72.4199Z" fill="#5F5F5D"/>
</svg>
