<svg width="164" height="159" viewBox="0 0 164 159" fill="none" xmlns="http://www.w3.org/2000/svg">
<path d="M0.266602 48.5193L81.2666 73.0193L163.267 48.5193V131.019L81.2666 158.519L0.266602 131.019V48.5193Z" fill="#F2C39A"/>
<path d="M76.2666 71.5193L81.2666 73.0193L86.2666 71.5193V157.019L81.2666 158.519L76.2666 157.019V71.5193Z" fill="#CFAA85"/>
<path d="M70.2666 2.01934L76.8744 1.55084e-06L84.7666 2.01934L162.995 25.5193L80.7666 50.5193L0.266602 25.5193L70.2666 2.01934Z" fill="#F2C39A"/>
<path d="M0.266602 60.5193L81.2666 85.7693L163.267 60.5193V70.7693L81.2666 97.0193L0.266602 70.7693V60.5193Z" fill="#2E2A25"/>
<path d="M0 25.5193L81 50.0193L163 25.5193V43.5193L81 68.4288L0 43.5193V25.5193Z" fill="#F2C39A"/>
<path d="M86.1603 51.5743L86.1603 49.2509L86.1603 44.3166L160.27 24.7246L163.002 25.5169L163.002 29.5875L86.1603 51.5743Z" fill="#CFAA85"/>
<path d="M76.3681 51.6292L76.2666 49.2509L76.3681 44.3568L2.27597 24.8187L0.013535 25.5039L0.0135356 29.4858L76.3681 51.6292Z" fill="#CFAA85"/>
<path d="M87.248 153.569C87.1068 153.136 87.0564 152.779 87.0966 152.499C87.1364 152.218 87.3235 152.022 87.6578 151.914C87.9921 151.805 88.2581 151.852 88.456 152.056C88.6535 152.259 88.8228 152.577 88.9639 153.01C89.1051 153.444 89.1557 153.801 89.1159 154.082C89.0757 154.362 88.8884 154.557 88.5541 154.666C88.2199 154.775 87.954 154.728 87.7565 154.525C87.5586 154.321 87.3891 154.002 87.248 153.569ZM87.5934 153.457C87.7063 153.803 87.8245 154.065 87.9481 154.243C88.0712 154.419 88.2442 154.471 88.467 154.398C88.6899 154.326 88.7992 154.182 88.7949 153.967C88.7902 153.751 88.7314 153.469 88.6185 153.123C88.5056 152.776 88.3876 152.515 88.2645 152.338C88.1409 152.161 87.9677 152.108 87.7449 152.181C87.522 152.254 87.4129 152.398 87.4176 152.614C87.4219 152.829 87.4805 153.11 87.5934 153.457ZM89.8453 154.184C89.7772 154.206 89.734 154.189 89.7159 154.133L89.6869 154.044C89.6711 153.996 89.6771 153.945 89.7046 153.891L90.1937 152.92C90.3386 152.633 90.4253 152.42 90.4538 152.281C90.4832 152.14 90.4727 151.992 90.4223 151.837C90.3799 151.707 90.3057 151.609 90.1995 151.544C90.0945 151.478 89.9647 151.47 89.8099 151.521C89.6712 151.566 89.5676 151.639 89.499 151.739C89.4303 151.84 89.4026 151.979 89.4158 152.159C89.4214 152.235 89.3938 152.274 89.3328 152.276L89.174 152.28C89.132 152.282 89.1056 152.232 89.0948 152.132C89.0779 151.958 89.1177 151.786 89.2145 151.616C89.312 151.445 89.4753 151.322 89.7043 151.247C89.9953 151.152 90.2314 151.156 90.4127 151.259C90.5952 151.361 90.721 151.518 90.7899 151.73C90.8572 151.936 90.8596 152.133 90.797 152.319C90.7356 152.504 90.6387 152.722 90.5065 152.972L90.0884 153.764L90.0908 153.771C90.1235 153.758 90.1726 153.74 90.2382 153.719L91.2503 153.389C91.3184 153.367 91.3615 153.384 91.3797 153.44L91.4245 153.577C91.4426 153.633 91.4176 153.672 91.3495 153.694L89.8453 154.184ZM91.3708 152.226C91.2296 151.793 91.1792 151.436 91.2194 151.156C91.2592 150.875 91.4463 150.68 91.7806 150.571C92.1149 150.462 92.3809 150.51 92.5788 150.713C92.7763 150.916 92.9456 151.234 93.0867 151.668C93.2279 152.101 93.2785 152.458 93.2387 152.74C93.1985 153.02 93.0112 153.214 92.6769 153.323C92.3427 153.432 92.0768 153.385 91.8793 153.182C91.6814 152.978 91.5119 152.66 91.3708 152.226ZM91.7162 152.114C91.8291 152.461 91.9473 152.723 92.0709 152.9C92.194 153.076 92.367 153.128 92.5898 153.056C92.8127 152.983 92.922 152.839 92.9177 152.624C92.913 152.408 92.8542 152.127 92.7413 151.78C92.6284 151.433 92.5104 151.172 92.3873 150.996C92.2637 150.818 92.0905 150.766 91.8677 150.838C91.6448 150.911 91.5357 151.055 91.5404 151.271C91.5447 151.486 91.6033 151.767 91.7162 152.114ZM93.847 152.576C93.7789 152.536 93.7539 152.492 93.7719 152.447L93.8304 152.298C93.8559 152.234 93.9097 152.229 93.9917 152.283C94.0823 152.342 94.1831 152.383 94.2941 152.404C94.406 152.424 94.5139 152.417 94.6179 152.383C94.8222 152.316 94.9505 152.218 95.0029 152.089C95.0552 151.96 95.0538 151.81 94.9985 151.641C94.9401 151.461 94.8408 151.35 94.7007 151.306C94.5606 151.263 94.4199 151.264 94.2788 151.31L94.1154 151.363C94.0597 151.381 94.0251 151.37 94.0118 151.329L93.9671 151.192C93.953 151.149 93.9738 151.118 94.0295 151.1L94.1613 151.057C94.2975 151.012 94.3994 150.93 94.4669 150.809C94.5357 150.688 94.5451 150.551 94.4951 150.397C94.4604 150.291 94.393 150.216 94.2928 150.174C94.1926 150.131 94.072 150.133 93.9308 150.179C93.7984 150.222 93.6999 150.287 93.6355 150.376C93.5711 150.464 93.5288 150.536 93.5086 150.591C93.4822 150.666 93.4406 150.69 93.384 150.663L93.2399 150.593C93.1977 150.572 93.1952 150.516 93.2324 150.425C93.2722 150.328 93.3423 150.23 93.4426 150.13C93.5442 150.03 93.6785 149.953 93.8457 149.898C94.102 149.815 94.3177 149.813 94.493 149.893C94.6683 149.973 94.788 150.111 94.8521 150.308C94.9029 150.464 94.8972 150.61 94.8349 150.747C94.7734 150.882 94.6897 150.98 94.5839 151.042L94.5863 151.05C94.7249 151.025 94.8751 151.056 95.0372 151.141C95.1993 151.227 95.3085 151.356 95.365 151.529C95.4488 151.787 95.4401 152.014 95.3386 152.212C95.238 152.408 95.0256 152.558 94.7012 152.664C94.513 152.725 94.3457 152.739 94.1994 152.706C94.0526 152.672 93.9351 152.628 93.847 152.576ZM96.0295 152.17C95.9614 152.192 95.9182 152.175 95.9001 152.119L95.8711 152.03C95.8553 151.982 95.8613 151.931 95.8888 151.876L96.3779 150.906C96.5227 150.619 96.6094 150.406 96.638 150.267C96.6674 150.125 96.6569 149.978 96.6065 149.823C96.5641 149.693 96.4899 149.595 96.3837 149.53C96.2787 149.464 96.1489 149.456 95.9941 149.507C95.8554 149.552 95.7518 149.625 95.6831 149.725C95.6145 149.825 95.5868 149.965 95.6 150.144C95.6056 150.221 95.578 150.26 95.517 150.262L95.3582 150.266C95.3162 150.268 95.2898 150.218 95.279 150.118C95.262 149.944 95.3019 149.772 95.3986 149.602C95.4962 149.431 95.6595 149.308 95.8885 149.233C96.1795 149.138 96.4156 149.142 96.5969 149.245C96.7794 149.347 96.9051 149.504 96.9741 149.715C97.0414 149.922 97.0438 150.119 96.9811 150.305C96.9197 150.49 96.8229 150.708 96.6907 150.958L96.2726 151.749L96.275 151.757C96.3077 151.744 96.3568 151.726 96.4224 151.705L97.4345 151.375C97.5026 151.353 97.5457 151.37 97.5639 151.425L97.6086 151.563C97.6268 151.619 97.6018 151.658 97.5337 151.68L96.0295 152.17ZM97.555 150.212C97.4138 149.779 97.3634 149.422 97.4036 149.142C97.4434 148.861 97.6305 148.666 97.9648 148.557C98.299 148.448 98.5651 148.495 98.763 148.699C98.9605 148.902 99.1298 149.22 99.2709 149.653C99.4121 150.087 99.4627 150.444 99.4229 150.725C99.3827 151.006 99.1954 151.2 98.8611 151.309C98.5268 151.418 98.261 151.371 98.0635 151.168C97.8656 150.964 97.6961 150.646 97.555 150.212ZM97.9004 150.1C98.0133 150.446 98.1315 150.709 98.255 150.886C98.3782 151.062 98.5512 151.114 98.774 151.042C98.9969 150.969 99.1062 150.825 99.1019 150.61C99.0972 150.394 99.0384 150.113 98.9255 149.766C98.8126 149.419 98.6946 149.158 98.5715 148.982C98.4479 148.804 98.2747 148.752 98.0519 148.824C97.829 148.897 97.7199 149.041 97.7246 149.257C97.7289 149.472 97.7875 149.753 97.9004 150.1ZM99.6164 149.541C99.4752 149.108 99.4248 148.751 99.465 148.471C99.5048 148.189 99.6919 147.994 100.026 147.885C100.36 147.777 100.627 147.824 100.824 148.028C101.022 148.231 101.191 148.549 101.332 148.982C101.473 149.415 101.524 149.773 101.484 150.054C101.444 150.334 101.257 150.529 100.923 150.638C100.588 150.747 100.322 150.7 100.125 150.497C99.927 150.293 99.7575 149.974 99.6164 149.541ZM99.9618 149.428C100.075 149.775 100.193 150.037 100.316 150.215C100.44 150.391 100.613 150.443 100.835 150.37C101.058 150.298 101.168 150.154 101.163 149.939C101.159 149.723 101.1 149.441 100.987 149.095C100.874 148.748 100.756 148.486 100.633 148.31C100.509 148.133 100.336 148.08 100.113 148.153C99.8904 148.225 99.7813 148.37 99.786 148.586C99.7903 148.801 99.8489 149.082 99.9618 149.428ZM101.52 148.405C101.432 148.135 101.432 147.893 101.52 147.678C101.609 147.463 101.793 147.31 102.073 147.219C102.365 147.124 102.621 147.169 102.842 147.355C103.063 147.538 103.24 147.832 103.371 148.236C103.549 148.781 103.577 149.19 103.457 149.463C103.336 149.735 103.14 149.915 102.869 150.004C102.714 150.054 102.584 150.075 102.478 150.065C102.372 150.056 102.276 150.031 102.189 149.991C102.121 149.96 102.096 149.923 102.114 149.882L102.168 149.751C102.19 149.7 102.236 149.689 102.307 149.718C102.366 149.743 102.432 149.759 102.506 149.767C102.58 149.774 102.676 149.758 102.795 149.72C102.962 149.665 103.08 149.534 103.15 149.327C103.219 149.119 103.195 148.837 103.079 148.479L103.075 148.48C103.046 148.579 102.987 148.674 102.901 148.765C102.815 148.855 102.692 148.925 102.532 148.977C102.334 149.042 102.138 149.031 101.945 148.945C101.751 148.858 101.609 148.678 101.52 148.405ZM101.881 148.276C101.939 148.455 102.025 148.577 102.139 148.641C102.253 148.704 102.373 148.715 102.499 148.674C102.663 148.621 102.773 148.529 102.831 148.399C102.89 148.269 102.892 148.119 102.837 147.95C102.787 147.796 102.699 147.671 102.572 147.574C102.447 147.475 102.31 147.45 102.16 147.499C102.005 147.549 101.905 147.646 101.86 147.789C101.815 147.933 101.822 148.095 101.881 148.276ZM104.163 149.186C104.096 149.139 104.075 149.094 104.101 149.05L104.183 148.91C104.213 148.859 104.267 148.859 104.344 148.909C104.391 148.939 104.468 148.976 104.576 149.021C104.684 149.065 104.805 149.065 104.94 149.021C105.117 148.964 105.232 148.866 105.286 148.728C105.341 148.589 105.339 148.43 105.28 148.251C105.225 148.081 105.143 147.96 105.035 147.887C104.926 147.814 104.795 147.803 104.641 147.853C104.546 147.884 104.47 147.919 104.413 147.958C104.356 147.997 104.303 148.058 104.254 148.139C104.22 148.196 104.177 148.232 104.125 148.249L104.038 148.277C103.982 148.296 103.946 148.277 103.927 148.221L103.5 146.908C103.482 146.852 103.5 146.816 103.556 146.797L104.838 146.38C104.893 146.362 104.93 146.381 104.948 146.436L104.993 146.574C105.011 146.63 104.992 146.666 104.937 146.685L103.899 147.023L104.137 147.756C104.15 147.793 104.16 147.831 104.17 147.869L104.178 147.866C104.228 147.786 104.296 147.719 104.381 147.667C104.467 147.614 104.549 147.575 104.629 147.549C104.859 147.474 105.066 147.492 105.25 147.601C105.433 147.711 105.566 147.891 105.647 148.14C105.735 148.411 105.724 148.649 105.613 148.855C105.503 149.061 105.31 149.209 105.034 149.299C104.832 149.364 104.656 149.376 104.505 149.333C104.355 149.289 104.241 149.24 104.163 149.186ZM106.046 148.18C105.99 148.198 105.954 148.18 105.935 148.124L105.882 147.96C105.869 147.921 105.87 147.873 105.885 147.818L106.392 145.911C106.406 145.857 106.433 145.823 106.474 145.81L106.643 145.755C106.7 145.737 106.737 145.755 106.756 145.811L107.286 147.44L107.604 147.336C107.659 147.318 107.696 147.337 107.714 147.392L107.759 147.53C107.777 147.586 107.759 147.622 107.705 147.64L107.385 147.744L107.572 148.318C107.59 148.374 107.571 148.411 107.516 148.429L107.356 148.481C107.3 148.499 107.263 148.48 107.245 148.424L107.058 147.851L106.046 148.18ZM106.196 147.795L106.959 147.546L106.611 146.478C106.599 146.441 106.588 146.403 106.579 146.365L106.575 146.367L106.196 147.795ZM108.042 147.415C107.986 147.242 107.992 147.077 108.06 146.92C108.128 146.763 108.21 146.654 108.307 146.594L108.305 146.588C108.179 146.589 108.06 146.554 107.946 146.483C107.832 146.412 107.749 146.296 107.697 146.135C107.631 145.931 107.651 145.743 107.758 145.573C107.865 145.401 108.037 145.277 108.272 145.2C108.507 145.123 108.718 145.123 108.906 145.199C109.093 145.273 109.22 145.413 109.287 145.617C109.339 145.778 109.338 145.922 109.284 146.049C109.229 146.175 109.15 146.275 109.048 146.348L109.049 146.352C109.163 146.343 109.296 146.382 109.449 146.468C109.601 146.553 109.705 146.682 109.762 146.855C109.842 147.103 109.838 147.323 109.747 147.517C109.658 147.71 109.465 147.855 109.168 147.952C108.871 148.049 108.629 148.046 108.442 147.942C108.256 147.838 108.123 147.663 108.042 147.415ZM108.407 147.305C108.463 147.478 108.549 147.596 108.664 147.658C108.779 147.721 108.916 147.726 109.077 147.674C109.238 147.621 109.346 147.536 109.401 147.418C109.457 147.3 109.457 147.154 109.4 146.981C109.356 146.845 109.273 146.739 109.151 146.664C109.029 146.588 108.891 146.576 108.736 146.626C108.582 146.677 108.476 146.768 108.421 146.901C108.367 147.034 108.362 147.168 108.407 147.305ZM108.046 146.021C108.087 146.145 108.156 146.239 108.255 146.304C108.356 146.369 108.484 146.376 108.638 146.325C108.793 146.275 108.891 146.194 108.933 146.083C108.977 145.972 108.978 145.855 108.938 145.731C108.905 145.632 108.842 145.552 108.747 145.491C108.651 145.43 108.523 145.426 108.362 145.479C108.202 145.531 108.101 145.61 108.059 145.715C108.018 145.82 108.014 145.922 108.046 146.021Z" fill="black"/>
<path d="M76.3239 44.364L81.3109 46.8932L86.2609 44.364V66.8795L81.2798 68.5193L76.3239 66.8795L76.3239 44.364Z" fill="#CFAA85"/>
</svg>
