<svg width="400" height="400" viewBox="0 0 400 400" fill="none" xmlns="http://www.w3.org/2000/svg">
<circle cx="200" cy="200" r="200" fill="#050509"/>
<circle cx="200" cy="200" r="200" fill="#1E2340" fill-opacity="0.16"/>
<g clip-path="url(#clip0_0_1)">
<path d="M338.004 157.017C358.309 201.995 356.11 215.361 332.986 259.277C329.448 267.024 325.743 274.712 320.709 281.663C315.702 289.143 311.255 297.121 304.343 303.117C292.689 312.797 279.968 321.337 267.038 329.241C244.173 341.553 218.251 349.409 192.419 350.895C177.018 350.515 161.869 346.393 147.366 341.674C136.073 337.552 126.959 329.592 117.129 323.001C110.052 318.199 103.162 313.059 97.1485 306.982C79.6853 288.678 73.4175 275.309 67.6213 251.018C62.613 231.42 57.1727 211.453 57.7038 191.022C59.4039 159.751 75.4816 129.145 99.1997 108.326C108.85 101.035 120.02 96.0646 131.059 91.2398C147.593 83.9517 164.848 78.056 182.749 75.4207C195 73.6215 207.275 75.8094 219.312 77.7675C231.71 79.6674 243.721 83.4918 255.036 88.7307C283.16 102.3 324.409 156.533 323.023 188.264C323.063 200.628 318.336 212.202 316.278 224.263C311.545 244.327 301.601 271.992 288.075 287.797C279.042 296.364 266.848 300.768 255.77 306.126C237.865 313.533 220.604 314.722 201.696 311.898C193.043 310.89 184.351 309.971 175.768 308.52C166.851 306.429 158.212 303.304 149.416 300.773C133.597 294.082 117.519 283.969 109.352 268.565C90.5029 232.487 90.8454 211.915 102.403 173.347C107.436 159.565 110.258 144.309 119.734 132.595C143.077 106.481 183.086 105.518 214.613 113.946C246.077 120.502 278.928 140.067 285.268 173.362C289.122 188.791 289.051 205.04 287.92 220.859C285.145 241.485 270.029 257.882 253.238 269.408C239.912 278.017 223.604 281.622 208.006 283.186C177.274 287.733 144.309 277.949 134.716 246.139C130.433 232.293 128.103 217.922 126.308 203.555C123.308 186.676 128.802 168.76 141.095 156.376C147.755 149.773 157.056 146.96 165.624 143.653C180.308 138.003 196.322 136.723 211.311 141.446C235.935 148.809 243.332 159.057 251.831 181.94C260.014 200.178 263.205 222.824 251.731 240.66C244.058 251.219 229.646 253.641 217.391 253.951C203.797 253.874 188.277 259.153 176.301 250.812C171.694 247.018 170.098 240.963 167.469 235.837C159.752 219.036 153.735 193.346 172.097 180.84C188.886 170.222 214.907 169.625 228.042 185.705C244.896 207.785 232.34 224.987 207.867 231.676C198.142 233.869 190.066 226.288 188.415 217.275C182.42 201.305 201.098 192.58 214.48 197.15C221.877 200.06 215.713 208.684 209.711 208.535C207.441 208.789 205.196 208.267 202.936 208.408C203.617 212.141 204.558 221.296 210.115 219.117C214.405 217.276 219.805 214.822 221.177 210.03C221.853 199.614 216.889 187.565 206.568 183.556C199.258 180.75 191.063 182.028 184.021 185.23C171.317 189.973 179.41 212.282 181.791 221.801C184.453 228.259 185.108 236.784 189.823 241.976C198.431 246.458 215.436 240.319 225.336 239.131C228.697 237.949 232.767 237.507 235.428 235.028C238.924 229.914 240.953 223.955 242.581 218.06C246.924 202.301 243.881 185.452 236.867 171.048C231.009 159.608 217.696 156.488 206.106 153.469C193.059 149.63 179.741 152.626 167.293 157.416C155.721 161.196 148.714 164.08 142.753 175.345C127.739 198.428 138.346 228.273 153.017 248.545C168.471 267.598 196.007 274.909 219.971 269.97C229.183 267.242 238.837 264.385 246.258 258.044C255.802 250.409 265.347 242.389 271.23 231.552C286.997 204.962 279.297 172.11 256.311 152.764C235.452 134.542 208.25 120.444 179.535 122.335C150.157 123.376 126.536 131.713 115.466 160.862C104.258 191.084 109.065 224.929 119.693 254.393C122.116 261.291 124.912 268.478 130.82 273.18C138.004 278.461 145.256 283.713 152.772 288.539C162.276 293.404 172.603 297.471 183.17 299.474C201.895 301.035 221.104 299.536 239.317 294.587C246.702 292.988 253.883 290.598 261.081 288.322C270.516 285.848 279.995 282.48 285.593 273.988C300.236 256.151 303.797 235.295 303.918 213.13C304.477 200.998 304.288 188.903 300.068 177.391C292.263 154.014 289.209 130.112 268.439 113.837C261.458 108.119 254.223 102.55 245.645 99.3329C238.555 96.6235 231.75 93.1385 224.494 90.8813C214.062 87.9345 203.143 86.4432 192.271 86.0822C175.953 86.8075 160.225 92.4831 144.354 96.0646C102.028 105.892 97.6776 119.884 85.6929 158.216C81.8238 171.052 75.6058 183.294 73.138 196.474C68.783 222.185 76.5566 247.699 88.5046 270.197C98.0787 286.093 107.666 303.201 123.898 313.341C136.887 322.314 151.027 329.532 166.514 333.35C178.056 336.475 189.773 341.158 201.99 339.591C214.434 337.986 226.185 333.31 237.635 328.339C253.146 322.321 267.908 314.783 281.885 305.77C316.175 283.946 335.508 242.85 332.522 203.395C330.433 187.5 327.099 171.77 322.188 156.518C317.46 142.838 314.508 127.972 305.253 116.445C299.846 109.496 292.307 104.825 285.378 99.5305C264.958 82.6782 239.695 72.2222 213.676 66.8317C202.962 65.1638 192.39 62.2083 181.465 62.137C176.828 61.7071 169.287 66.6377 167.213 60.1916C167.796 46.0419 200.44 53.5564 209.521 54.3687C230.497 56.3342 253.171 55.952 271.15 68.1171C280.997 74.3304 288.78 83.1339 296.845 91.3585C302.583 97.8171 309.403 103.327 314.288 110.511C324.241 124.826 331.35 140.967 338.008 157.01L338.004 157.017Z" fill="url(#paint0_linear_0_1)"/>
</g>
<path d="M325.232 106.175C325.984 104.76 328.012 104.76 328.764 106.175L365.557 175.368H288.439L325.232 106.175Z" fill="#00FF7A"/>
<path d="M361.396 185.299H292.599L326.998 249.988L361.396 185.299Z" stroke="#FF3B3B" stroke-width="5"/>
<path d="M101.136 330.839L85.9855 68.0391L139.305 78.0425L144.297 243.144C144.411 248.863 144.475 256.116 144.488 264.902C144.731 273.732 144.751 281.214 144.55 287.349C146.586 281.558 149.088 274.549 152.056 266.322C155.024 258.095 157.619 251.222 159.841 245.704L223.241 93.7898L275.185 103.535L166.496 343.102L101.136 330.839Z" fill="white"/>
<defs>
<linearGradient id="paint0_linear_0_1" x1="66.8848" y1="255.246" x2="333.115" y2="144.754" gradientUnits="userSpaceOnUse">
<stop stop-color="#131726"/>
<stop offset="1" stop-color="#45568C" stop-opacity="0.25"/>
</linearGradient>
<clipPath id="clip0_0_1">
<rect width="345" height="345" fill="white" transform="translate(27.5 27.5)"/>
</clipPath>
</defs>
</svg>
