<svg width="824" height="400" viewBox="0 0 824 400" fill="none" xmlns="http://www.w3.org/2000/svg">
<path d="M774 28H50C40.0589 28 32 36.0589 32 46V230C32 239.941 40.0589 248 50 248H774C783.941 248 792 239.941 792 230V46C792 36.0589 783.941 28 774 28Z" fill="url(#paint0_linear_0_1)"/>
<path opacity="0.45" d="M682.95 15.5C722.95 55.5 722.95 135.5 642.95 155.5C572.95 175.5 542.95 115.5 582.95 85.5C632.95 45.5 682.95 85.5 632.95 135.5C592.95 175.5 522.95 195.5 507.95 260.5" stroke="#2A8FA0" stroke-width="5" stroke-linecap="round" stroke-dasharray="10 18"/>
<path d="M92.0142 71.0391H86.1847C86.2027 70.2654 86.1037 69.5817 85.8878 68.9879C85.6719 68.3852 85.348 67.8724 84.9162 67.4496C84.4934 67.0268 83.9761 66.7074 83.3643 66.4915C82.7526 66.2666 82.0644 66.1541 81.2997 66.1541C79.8243 66.1541 78.4704 66.523 77.2379 67.2607C76.0054 67.9983 74.9664 69.0689 74.1207 70.4723C73.2751 71.8667 72.6903 73.5535 72.3665 75.5327C72.0516 77.4399 72.0696 79.0367 72.4205 80.3232C72.7713 81.6096 73.392 82.5812 74.2827 83.2379C75.1823 83.8857 76.3023 84.2095 77.6428 84.2095C78.4704 84.2095 79.2576 84.1061 80.0043 83.8991C80.7509 83.6832 81.4302 83.3774 82.0419 82.9815C82.6626 82.5767 83.2024 82.0864 83.6612 81.5107C84.129 80.9349 84.4934 80.2827 84.7543 79.554H90.6243C90.2554 80.8224 89.6797 82.0459 88.897 83.2244C88.1233 84.4029 87.1652 85.4555 86.0227 86.3821C84.8802 87.2997 83.5803 88.0284 82.1229 88.5682C80.6655 89.108 79.0687 89.3778 77.3324 89.3778C74.8224 89.3778 72.6679 88.8021 70.8686 87.6506C69.0784 86.4991 67.7874 84.8393 66.9957 82.6712C66.2041 80.5031 66.0556 77.8897 66.5504 74.831C67.0452 71.8712 68.0123 69.3613 69.4517 67.3011C70.9001 65.232 72.6589 63.6622 74.728 62.5916C76.8061 61.5211 79.0282 60.9858 81.3942 60.9858C83.0405 60.9858 84.5294 61.2107 85.8608 61.6605C87.1922 62.1103 88.3258 62.767 89.2614 63.6307C90.206 64.4853 90.9167 65.5334 91.3935 66.7749C91.8703 68.0163 92.0772 69.4377 92.0142 71.0391ZM100.914 77.017L98.9165 89H93.1815L97.7695 61.3636H103.343L101.615 71.9297H101.845C102.511 70.7062 103.424 69.7481 104.584 69.0554C105.745 68.3537 107.117 68.0028 108.7 68.0028C110.139 68.0028 111.34 68.3177 112.303 68.9474C113.275 69.5682 113.963 70.4633 114.368 71.6328C114.772 72.7933 114.84 74.1832 114.57 75.8026L112.357 89H106.622L108.646 76.8281C108.853 75.5507 108.686 74.5566 108.147 73.8459C107.616 73.1352 106.77 72.7798 105.61 72.7798C104.827 72.7798 104.107 72.9463 103.451 73.2791C102.794 73.612 102.241 74.0978 101.791 74.7365C101.35 75.3662 101.058 76.1264 100.914 77.017ZM122.71 89.3913C121.397 89.3913 120.259 89.1619 119.296 88.7031C118.343 88.2353 117.641 87.5426 117.191 86.625C116.741 85.7074 116.629 84.5694 116.854 83.2109C117.052 82.0594 117.425 81.0968 117.974 80.3232C118.532 79.5405 119.211 78.9107 120.012 78.4339C120.812 77.9571 121.698 77.5928 122.67 77.3409C123.651 77.089 124.663 76.9181 125.706 76.8281C126.912 76.7022 127.892 76.5807 128.648 76.4638C129.413 76.3468 129.984 76.1804 130.362 75.9645C130.74 75.7396 130.969 75.4067 131.05 74.9659V74.8849C131.185 74.0393 131.027 73.3826 130.578 72.9148C130.137 72.438 129.431 72.1996 128.459 72.1996C127.433 72.1996 126.561 72.4245 125.841 72.8743C125.13 73.3241 124.622 73.8954 124.316 74.5881L119.08 74.1562C119.548 72.8968 120.254 71.8082 121.199 70.8906C122.153 69.964 123.3 69.2533 124.64 68.7585C125.981 68.2547 127.483 68.0028 129.147 68.0028C130.299 68.0028 131.374 68.1378 132.372 68.4077C133.38 68.6776 134.248 69.0959 134.977 69.6626C135.714 70.2294 136.245 70.9581 136.569 71.8487C136.902 72.7303 136.969 73.7874 136.771 75.0199L134.437 89H128.985L129.471 86.1257H129.309C128.868 86.7734 128.329 87.3447 127.69 87.8395C127.051 88.3253 126.318 88.7076 125.49 88.9865C124.663 89.2564 123.736 89.3913 122.71 89.3913ZM125.018 85.424C125.855 85.424 126.624 85.2576 127.325 84.9247C128.036 84.5829 128.621 84.1241 129.08 83.5483C129.548 82.9725 129.844 82.3203 129.97 81.5916L130.321 79.392C130.141 79.509 129.88 79.6125 129.539 79.7024C129.206 79.7924 128.841 79.8778 128.445 79.9588C128.059 80.0308 127.667 80.0982 127.271 80.1612C126.876 80.2152 126.52 80.2692 126.205 80.3232C125.513 80.4221 124.892 80.5795 124.343 80.7955C123.794 81.0114 123.349 81.3037 123.007 81.6726C122.665 82.0324 122.454 82.4822 122.373 83.022C122.247 83.8047 122.432 84.4029 122.926 84.8168C123.43 85.2216 124.127 85.424 125.018 85.424ZM146.67 77.017L144.672 89H138.937L142.392 68.2727H147.857L147.263 71.9297H147.493C148.149 70.7152 149.076 69.7571 150.273 69.0554C151.478 68.3537 152.85 68.0028 154.388 68.0028C155.828 68.0028 157.029 68.3177 157.991 68.9474C158.963 69.5772 159.647 70.4723 160.042 71.6328C160.447 72.7933 160.515 74.1832 160.245 75.8026L158.032 89H152.283L154.321 76.8281C154.528 75.5597 154.366 74.5701 153.835 73.8594C153.313 73.1397 152.472 72.7798 151.312 72.7798C150.538 72.7798 149.827 72.9463 149.18 73.2791C148.532 73.612 147.988 74.0978 147.547 74.7365C147.115 75.3662 146.823 76.1264 146.67 77.017ZM170.308 77.017L168.311 89H162.576L166.031 68.2727H171.496L170.902 71.9297H171.131C171.788 70.7152 172.715 69.7571 173.911 69.0554C175.117 68.3537 176.489 68.0028 178.027 68.0028C179.466 68.0028 180.667 68.3177 181.63 68.9474C182.602 69.5772 183.285 70.4723 183.681 71.6328C184.086 72.7933 184.153 74.1832 183.884 75.8026L181.67 89H175.922L177.96 76.8281C178.166 75.5597 178.004 74.5701 177.474 73.8594C176.952 73.1397 176.111 72.7798 174.95 72.7798C174.177 72.7798 173.466 72.9463 172.818 73.2791C172.17 73.612 171.626 74.0978 171.185 74.7365C170.754 75.3662 170.461 76.1264 170.308 77.017ZM195.566 89.4048C193.443 89.4048 191.684 88.973 190.29 88.1094C188.896 87.2367 187.915 86.0043 187.348 84.4119C186.79 82.8106 186.696 80.9169 187.065 78.7308C187.425 76.5987 188.149 74.7275 189.237 73.1172C190.335 71.5069 191.711 70.2519 193.367 69.3523C195.022 68.4527 196.866 68.0028 198.899 68.0028C200.267 68.0028 201.504 68.2232 202.61 68.6641C203.726 69.0959 204.652 69.7526 205.39 70.6342C206.128 71.5069 206.632 72.5999 206.901 73.9134C207.18 75.2268 207.176 76.7652 206.888 78.5284L206.632 80.1072H189.143L189.696 76.5447H201.787C201.922 75.7171 201.868 74.9839 201.625 74.3452C201.382 73.7064 200.977 73.2071 200.411 72.8473C199.844 72.4785 199.147 72.294 198.319 72.294C197.473 72.294 196.682 72.5009 195.944 72.9148C195.206 73.3286 194.586 73.8729 194.082 74.5476C193.587 75.2133 193.268 75.9375 193.124 76.7202L192.49 80.2557C192.31 81.3442 192.346 82.2483 192.597 82.968C192.858 83.6877 193.308 84.2275 193.947 84.5874C194.586 84.9382 195.395 85.1136 196.376 85.1136C197.015 85.1136 197.613 85.0237 198.171 84.8438C198.737 84.6638 199.241 84.3984 199.682 84.0476C200.123 83.6877 200.483 83.2424 200.762 82.7116L206.011 83.0625C205.525 84.34 204.787 85.4555 203.798 86.4091C202.808 87.3537 201.616 88.0914 200.222 88.6222C198.836 89.1439 197.285 89.4048 195.566 89.4048ZM219.259 61.3636L214.671 89H208.922L213.51 61.3636H219.259ZM232.159 89L229.973 68.2727H235.789L236.68 82.1989H236.869L242.537 68.2727H248.245L249.324 82.1179H249.5L254.978 68.2727H260.781L251.699 89H245.613L244.21 75.9645H243.953L238.232 89H232.159ZM260.393 89L263.847 68.2727H269.596L266.142 89H260.393ZM267.316 65.5739C266.461 65.5739 265.755 65.2905 265.197 64.7237C264.648 64.148 264.423 63.4643 264.522 62.6726C264.621 61.8629 265.008 61.1792 265.683 60.6214C266.357 60.0547 267.122 59.7713 267.977 59.7713C268.831 59.7713 269.529 60.0547 270.068 60.6214C270.608 61.1792 270.833 61.8629 270.743 62.6726C270.653 63.4643 270.271 64.148 269.596 64.7237C268.93 65.2905 268.17 65.5739 267.316 65.5739ZM285.226 68.2727L284.511 72.5909H272.015L272.744 68.2727H285.226ZM276.387 63.3068H282.136L278.924 82.6307C278.834 83.1615 278.848 83.5753 278.964 83.8722C279.081 84.16 279.275 84.3625 279.545 84.4794C279.824 84.5964 280.156 84.6548 280.543 84.6548C280.813 84.6548 281.088 84.6323 281.366 84.5874C281.645 84.5334 281.857 84.4929 282.001 84.4659L282.217 88.7436C281.893 88.8426 281.456 88.9505 280.908 89.0675C280.368 89.1844 279.729 89.2564 278.991 89.2834C277.588 89.3374 276.401 89.1529 275.429 88.7301C274.457 88.2983 273.76 87.6371 273.337 86.7464C272.915 85.8558 272.825 84.7358 273.067 83.3864L276.387 63.3068ZM293.734 77.017L291.737 89H286.002L290.59 61.3636H296.163L294.436 71.9297H294.665C295.331 70.7062 296.244 69.7481 297.404 69.0554C298.565 68.3537 299.937 68.0028 301.52 68.0028C302.96 68.0028 304.161 68.3177 305.123 68.9474C306.095 69.5682 306.783 70.4633 307.188 71.6328C307.593 72.7933 307.66 74.1832 307.39 75.8026L305.177 89H299.442L301.466 76.8281C301.673 75.5507 301.507 74.5566 300.967 73.8459C300.436 73.1352 299.591 72.7798 298.43 72.7798C297.647 72.7798 296.928 72.9463 296.271 73.2791C295.614 73.612 295.061 74.0978 294.611 74.7365C294.17 75.3662 293.878 76.1264 293.734 77.017ZM439.527 69.3928C439.572 68.2682 439.243 67.4001 438.542 66.7884C437.849 66.1766 436.801 65.8707 435.397 65.8707C434.444 65.8707 433.616 66.0057 432.914 66.2756C432.213 66.5365 431.65 66.9008 431.228 67.3686C430.814 67.8274 430.557 68.3582 430.458 68.9609C430.359 69.4557 430.391 69.8875 430.553 70.2564C430.724 70.6252 430.989 70.9446 431.349 71.2145C431.718 71.4754 432.154 71.7048 432.658 71.9027C433.162 72.0916 433.697 72.2536 434.264 72.3885L436.639 72.9822C437.799 73.2521 438.843 73.612 439.77 74.0618C440.705 74.5116 441.488 75.0649 442.118 75.7216C442.756 76.3783 443.206 77.152 443.467 78.0426C443.728 78.9332 443.764 79.9543 443.575 81.1058C443.287 82.7971 442.617 84.2635 441.564 85.505C440.512 86.7375 439.131 87.6955 437.422 88.3793C435.712 89.054 433.733 89.3913 431.484 89.3913C429.253 89.3913 427.368 89.0495 425.83 88.3658C424.292 87.6821 423.172 86.67 422.47 85.3295C421.777 83.9801 421.57 82.3113 421.849 80.3232H427.503C427.404 81.2498 427.539 82.0234 427.908 82.6442C428.286 83.2559 428.848 83.7192 429.595 84.0341C430.342 84.34 431.219 84.4929 432.226 84.4929C433.225 84.4929 434.111 84.349 434.885 84.0611C435.667 83.7732 436.301 83.3729 436.787 82.8601C437.273 82.3473 437.57 81.758 437.678 81.0923C437.786 80.4716 437.691 79.9498 437.395 79.527C437.098 79.1042 436.621 78.7443 435.964 78.4474C435.316 78.1416 434.511 77.8717 433.549 77.6378L430.661 76.8821C428.43 76.3153 426.743 75.4292 425.6 74.2237C424.458 73.0182 424.049 71.3944 424.373 69.3523C424.66 67.679 425.358 66.2171 426.464 64.9666C427.58 63.7071 428.983 62.7311 430.674 62.0384C432.375 61.3366 434.232 60.9858 436.248 60.9858C438.299 60.9858 440.03 61.3411 441.443 62.0518C442.855 62.7536 443.885 63.7341 444.533 64.9936C445.181 66.2531 445.379 67.7195 445.127 69.3928H439.527ZM460.568 68.2727L459.852 72.5909H447.357L448.085 68.2727H460.568ZM451.729 63.3068H457.477L454.266 82.6307C454.176 83.1615 454.189 83.5753 454.306 83.8722C454.423 84.16 454.617 84.3625 454.887 84.4794C455.165 84.5964 455.498 84.6548 455.885 84.6548C456.155 84.6548 456.429 84.6323 456.708 84.5874C456.987 84.5334 457.199 84.4929 457.343 84.4659L457.558 88.7436C457.235 88.8426 456.798 88.9505 456.249 89.0675C455.71 89.1844 455.071 89.2564 454.333 89.2834C452.93 89.3374 451.742 89.1529 450.771 88.7301C449.799 88.2983 449.102 87.6371 448.679 86.7464C448.256 85.8558 448.166 84.7358 448.409 83.3864L451.729 63.3068ZM475.621 80.1747L477.604 68.2727H483.353L479.898 89H474.379L475 85.2351H474.784C474.145 86.4496 473.214 87.4257 471.991 88.1634C470.767 88.901 469.377 89.2699 467.821 89.2699C466.435 89.2699 465.266 88.955 464.312 88.3253C463.368 87.6955 462.698 86.8004 462.302 85.6399C461.906 84.4794 461.838 83.0895 462.099 81.4702L464.312 68.2727H470.061L468.037 80.4446C467.848 81.6681 468.019 82.6352 468.55 83.3459C469.08 84.0566 469.89 84.4119 470.979 84.4119C471.671 84.4119 472.341 84.2545 472.989 83.9396C473.646 83.6158 474.213 83.139 474.689 82.5092C475.166 81.8795 475.477 81.1013 475.621 80.1747ZM499.111 68.2727L498.396 72.5909H485.603L486.318 68.2727H499.111ZM485.778 89L489.489 66.7749C489.732 65.2725 490.227 64.0265 490.974 63.0369C491.729 62.0473 492.661 61.3052 493.767 60.8104C494.883 60.3156 496.088 60.0682 497.384 60.0682C498.265 60.0682 499.061 60.1357 499.772 60.2706C500.492 60.4055 501.013 60.527 501.337 60.6349L499.624 64.9531C499.408 64.8812 499.142 64.8137 498.827 64.7507C498.513 64.6877 498.18 64.6562 497.829 64.6562C496.992 64.6562 496.376 64.8542 495.98 65.25C495.593 65.6368 495.332 66.1811 495.197 66.8828L491.513 89H485.778ZM513.769 68.2727L513.054 72.5909H500.261L500.976 68.2727H513.769ZM500.437 89L504.148 66.7749C504.39 65.2725 504.885 64.0265 505.632 63.0369C506.388 62.0473 507.319 61.3052 508.425 60.8104C509.541 60.3156 510.746 60.0682 512.042 60.0682C512.923 60.0682 513.72 60.1357 514.43 60.2706C515.15 60.4055 515.672 60.527 515.996 60.6349L514.282 64.9531C514.066 64.8812 513.8 64.8137 513.486 64.7507C513.171 64.6877 512.838 64.6562 512.487 64.6562C511.65 64.6562 511.034 64.8542 510.638 65.25C510.251 65.6368 509.991 66.1811 509.856 66.8828L506.172 89H500.437ZM525.243 61.3636L521.518 80.7145H516.606L519.265 61.3636H525.243ZM517.969 89.3509C517.06 89.3509 516.314 89.036 515.729 88.4062C515.153 87.7765 514.892 87.0118 514.946 86.1122C515.009 85.2216 515.383 84.4704 516.066 83.8587C516.759 83.2379 517.555 82.9276 518.455 82.9276C519.319 82.9276 520.047 83.2379 520.641 83.8587C521.235 84.4794 521.496 85.2306 521.424 86.1122C521.379 86.706 521.185 87.2502 520.843 87.745C520.511 88.2308 520.088 88.6222 519.575 88.919C519.062 89.2069 518.527 89.3509 517.969 89.3509ZM537.563 61.3636L533.838 80.7145H528.926L531.585 61.3636H537.563ZM530.289 89.3509C529.381 89.3509 528.634 89.036 528.049 88.4062C527.474 87.7765 527.213 87.0118 527.267 86.1122C527.33 85.2216 527.703 84.4704 528.387 83.8587C529.079 83.2379 529.876 82.9276 530.775 82.9276C531.639 82.9276 532.368 83.2379 532.961 83.8587C533.555 84.4794 533.816 85.2306 533.744 86.1122C533.699 86.706 533.506 87.2502 533.164 87.745C532.831 88.2308 532.408 88.6222 531.895 88.919C531.382 89.2069 530.847 89.3509 530.289 89.3509Z" fill="white"/>
<path d="M318.577 89L323.165 61.3636H341.463L340.654 66.1811H328.199L327.119 72.7663H338.36L337.55 77.5838H326.309L324.42 89H318.577ZM340.806 89L345.394 61.3636H356.297C358.384 61.3636 360.102 61.7325 361.452 62.4702C362.81 63.2079 363.764 64.2559 364.313 65.6143C364.87 66.9638 365.001 68.5561 364.704 70.3913C364.398 72.2266 363.737 73.8009 362.72 75.1143C361.713 76.4278 360.399 77.4399 358.78 78.1506C357.17 78.8523 355.303 79.2031 353.18 79.2031H345.879L346.689 74.5071H353.031C354.147 74.5071 355.101 74.3542 355.892 74.0483C356.684 73.7424 357.309 73.2836 357.768 72.6719C358.236 72.0601 358.542 71.3 358.686 70.3913C358.838 69.4647 358.785 68.6911 358.524 68.0703C358.263 67.4406 357.79 66.9638 357.107 66.6399C356.423 66.3071 355.523 66.1406 354.408 66.1406H350.468L346.649 89H340.806ZM357.808 76.4233L362.599 89H356.149L351.507 76.4233H357.808ZM365.966 89L370.554 61.3636H389.176L388.366 66.1811H375.587L374.508 72.7663H386.329L385.519 77.5838H373.698L372.618 84.1825H385.452L384.642 89H365.966ZM389.233 89L393.821 61.3636H412.444L411.634 66.1811H398.855L397.775 72.7663H409.596L408.787 77.5838H396.966L395.886 84.1825H408.719L407.909 89H389.233Z" fill="#58C4FF"/>
<path d="M70.5966 106.909H72.1818V116.267C72.1818 117.102 72.0284 117.812 71.7216 118.396C71.4148 118.979 70.9822 119.423 70.424 119.725C69.8658 120.028 69.2074 120.179 68.4489 120.179C67.733 120.179 67.0959 120.049 66.5376 119.789C65.9794 119.525 65.5405 119.15 65.2209 118.664C64.9013 118.178 64.7415 117.601 64.7415 116.932H66.3011C66.3011 117.303 66.3928 117.626 66.576 117.903C66.7635 118.176 67.0192 118.389 67.343 118.543C67.6669 118.696 68.0355 118.773 68.4489 118.773C68.9048 118.773 69.2926 118.677 69.6122 118.485C69.9318 118.293 70.1747 118.012 70.3409 117.641C70.5114 117.266 70.5966 116.808 70.5966 116.267V106.909ZM79.1428 120.205C78.2564 120.205 77.4787 119.994 76.8097 119.572C76.1449 119.15 75.625 118.56 75.25 117.801C74.8793 117.043 74.6939 116.156 74.6939 115.142C74.6939 114.119 74.8793 113.227 75.25 112.464C75.625 111.701 76.1449 111.109 76.8097 110.687C77.4787 110.265 78.2564 110.054 79.1428 110.054C80.0291 110.054 80.8047 110.265 81.4695 110.687C82.1385 111.109 82.6584 111.701 83.0291 112.464C83.4041 113.227 83.5916 114.119 83.5916 115.142C83.5916 116.156 83.4041 117.043 83.0291 117.801C82.6584 118.56 82.1385 119.15 81.4695 119.572C80.8047 119.994 80.0291 120.205 79.1428 120.205ZM79.1428 118.849C79.8161 118.849 80.37 118.677 80.8047 118.332C81.2393 117.987 81.5611 117.533 81.7699 116.97C81.9787 116.408 82.0831 115.798 82.0831 115.142C82.0831 114.486 81.9787 113.874 81.7699 113.308C81.5611 112.741 81.2393 112.283 80.8047 111.933C80.37 111.584 79.8161 111.409 79.1428 111.409C78.4695 111.409 77.9155 111.584 77.4808 111.933C77.0462 112.283 76.7244 112.741 76.5156 113.308C76.3068 113.874 76.2024 114.486 76.2024 115.142C76.2024 115.798 76.3068 116.408 76.5156 116.97C76.7244 117.533 77.0462 117.987 77.4808 118.332C77.9155 118.677 78.4695 118.849 79.1428 118.849ZM85.8944 120V110.182H87.4029V120H85.8944ZM86.6614 108.545C86.3674 108.545 86.1138 108.445 85.9007 108.245C85.6919 108.045 85.5875 107.804 85.5875 107.523C85.5875 107.241 85.6919 107.001 85.9007 106.8C86.1138 106.6 86.3674 106.5 86.6614 106.5C86.9554 106.5 87.2069 106.6 87.4157 106.8C87.6287 107.001 87.7353 107.241 87.7353 107.523C87.7353 107.804 87.6287 108.045 87.4157 108.245C87.2069 108.445 86.9554 108.545 86.6614 108.545ZM91.6744 114.094V120H90.1658V110.182H91.6232V111.716H91.7511C91.9812 111.217 92.3306 110.817 92.7994 110.514C93.2681 110.207 93.8732 110.054 94.6147 110.054C95.2795 110.054 95.8612 110.19 96.3597 110.463C96.8583 110.732 97.2461 111.141 97.5231 111.69C97.8001 112.236 97.9386 112.926 97.9386 113.761V120H96.43V113.864C96.43 113.092 96.2298 112.491 95.8292 112.061C95.4286 111.626 94.8789 111.409 94.18 111.409C93.6985 111.409 93.2681 111.513 92.8888 111.722C92.5138 111.931 92.2177 112.236 92.0004 112.636C91.783 113.037 91.6744 113.523 91.6744 114.094ZM109.746 120.205C108.86 120.205 108.082 119.994 107.413 119.572C106.748 119.15 106.229 118.56 105.854 117.801C105.483 117.043 105.297 116.156 105.297 115.142C105.297 114.119 105.483 113.227 105.854 112.464C106.229 111.701 106.748 111.109 107.413 110.687C108.082 110.265 108.86 110.054 109.746 110.054C110.633 110.054 111.408 110.265 112.073 110.687C112.742 111.109 113.262 111.701 113.633 112.464C114.008 113.227 114.195 114.119 114.195 115.142C114.195 116.156 114.008 117.043 113.633 117.801C113.262 118.56 112.742 119.15 112.073 119.572C111.408 119.994 110.633 120.205 109.746 120.205ZM109.746 118.849C110.42 118.849 110.974 118.677 111.408 118.332C111.843 117.987 112.165 117.533 112.373 116.97C112.582 116.408 112.687 115.798 112.687 115.142C112.687 114.486 112.582 113.874 112.373 113.308C112.165 112.741 111.843 112.283 111.408 111.933C110.974 111.584 110.42 111.409 109.746 111.409C109.073 111.409 108.519 111.584 108.084 111.933C107.65 112.283 107.328 112.741 107.119 113.308C106.91 113.874 106.806 114.486 106.806 115.142C106.806 115.798 106.91 116.408 107.119 116.97C107.328 117.533 107.65 117.987 108.084 118.332C108.519 118.677 109.073 118.849 109.746 118.849ZM122.685 115.986V110.182H124.194V120H122.685V118.338H122.583C122.353 118.837 121.995 119.261 121.509 119.61C121.023 119.955 120.41 120.128 119.668 120.128C119.055 120.128 118.509 119.994 118.032 119.725C117.555 119.452 117.18 119.043 116.907 118.498C116.634 117.948 116.498 117.256 116.498 116.42V110.182H118.006V116.318C118.006 117.034 118.207 117.605 118.607 118.031C119.012 118.457 119.528 118.67 120.154 118.67C120.529 118.67 120.911 118.575 121.298 118.383C121.69 118.191 122.018 117.897 122.283 117.501C122.551 117.104 122.685 116.599 122.685 115.986ZM126.957 120V110.182H128.414V111.665H128.517C128.695 111.179 129.019 110.785 129.488 110.482C129.957 110.18 130.485 110.028 131.073 110.028C131.184 110.028 131.323 110.031 131.489 110.035C131.655 110.039 131.781 110.045 131.866 110.054V111.588C131.815 111.575 131.698 111.556 131.514 111.531C131.335 111.501 131.146 111.486 130.945 111.486C130.468 111.486 130.042 111.586 129.667 111.786C129.296 111.982 129.002 112.255 128.785 112.604C128.572 112.95 128.465 113.344 128.465 113.787V120H126.957ZM142.705 120.205C141.785 120.205 140.992 119.987 140.327 119.553C139.663 119.118 139.151 118.519 138.793 117.756C138.435 116.994 138.256 116.122 138.256 115.142C138.256 114.145 138.44 113.265 138.806 112.502C139.177 111.735 139.692 111.136 140.353 110.706C141.018 110.271 141.793 110.054 142.68 110.054C143.37 110.054 143.992 110.182 144.546 110.438C145.1 110.693 145.554 111.051 145.908 111.511C146.261 111.972 146.481 112.509 146.566 113.122H145.058C144.942 112.675 144.687 112.278 144.29 111.933C143.898 111.584 143.37 111.409 142.705 111.409C142.117 111.409 141.602 111.562 141.158 111.869C140.719 112.172 140.376 112.6 140.129 113.154C139.886 113.704 139.765 114.349 139.765 115.091C139.765 115.849 139.884 116.51 140.123 117.072C140.366 117.635 140.707 118.072 141.146 118.383C141.589 118.694 142.109 118.849 142.705 118.849C143.097 118.849 143.453 118.781 143.773 118.645C144.092 118.509 144.363 118.312 144.585 118.057C144.806 117.801 144.964 117.494 145.058 117.136H146.566C146.481 117.716 146.27 118.238 145.933 118.702C145.601 119.163 145.16 119.529 144.61 119.802C144.065 120.07 143.43 120.205 142.705 120.205ZM150.28 114.094V120H148.771V106.909H150.28V111.716H150.408C150.638 111.209 150.983 110.806 151.443 110.508C151.908 110.205 152.526 110.054 153.297 110.054C153.966 110.054 154.552 110.188 155.055 110.457C155.558 110.721 155.947 111.128 156.224 111.678C156.506 112.223 156.646 112.918 156.646 113.761V120H155.138V113.864C155.138 113.084 154.935 112.481 154.531 112.055C154.13 111.624 153.574 111.409 152.862 111.409C152.368 111.409 151.925 111.513 151.533 111.722C151.145 111.931 150.838 112.236 150.612 112.636C150.391 113.037 150.28 113.523 150.28 114.094ZM162.295 120.23C161.673 120.23 161.108 120.113 160.601 119.879C160.094 119.64 159.692 119.297 159.393 118.849C159.095 118.398 158.946 117.852 158.946 117.213C158.946 116.651 159.057 116.195 159.278 115.845C159.5 115.491 159.796 115.214 160.167 115.014C160.537 114.814 160.947 114.665 161.394 114.567C161.846 114.464 162.3 114.384 162.756 114.324C163.352 114.247 163.836 114.19 164.206 114.151C164.581 114.109 164.854 114.038 165.025 113.94C165.199 113.842 165.287 113.672 165.287 113.429V113.378C165.287 112.747 165.114 112.257 164.769 111.908C164.428 111.558 163.91 111.384 163.216 111.384C162.496 111.384 161.931 111.541 161.522 111.857C161.113 112.172 160.825 112.509 160.659 112.866L159.227 112.355C159.483 111.759 159.824 111.294 160.25 110.962C160.68 110.625 161.149 110.391 161.656 110.259C162.167 110.122 162.67 110.054 163.165 110.054C163.48 110.054 163.842 110.092 164.251 110.169C164.665 110.241 165.063 110.393 165.447 110.623C165.834 110.853 166.156 111.2 166.412 111.665C166.667 112.129 166.795 112.751 166.795 113.531V120H165.287V118.67H165.21C165.108 118.884 164.937 119.112 164.699 119.354C164.46 119.597 164.143 119.804 163.746 119.974C163.35 120.145 162.866 120.23 162.295 120.23ZM162.525 118.875C163.122 118.875 163.625 118.758 164.034 118.523C164.447 118.289 164.758 117.987 164.967 117.616C165.18 117.245 165.287 116.855 165.287 116.446V115.065C165.223 115.142 165.082 115.212 164.865 115.276C164.652 115.336 164.405 115.389 164.123 115.436C163.846 115.479 163.576 115.517 163.312 115.551C163.052 115.581 162.841 115.607 162.679 115.628C162.287 115.679 161.92 115.762 161.579 115.877C161.243 115.988 160.97 116.156 160.761 116.382C160.557 116.604 160.454 116.906 160.454 117.29C160.454 117.814 160.648 118.21 161.036 118.479C161.428 118.743 161.925 118.875 162.525 118.875ZM171.057 114.094V120H169.549V110.182H171.006V111.716H171.134C171.364 111.217 171.713 110.817 172.182 110.514C172.651 110.207 173.256 110.054 173.998 110.054C174.662 110.054 175.244 110.19 175.743 110.463C176.241 110.732 176.629 111.141 176.906 111.69C177.183 112.236 177.321 112.926 177.321 113.761V120H175.813V113.864C175.813 113.092 175.613 112.491 175.212 112.061C174.811 111.626 174.262 111.409 173.563 111.409C173.081 111.409 172.651 111.513 172.272 111.722C171.897 111.931 171.6 112.236 171.383 112.636C171.166 113.037 171.057 113.523 171.057 114.094ZM181.586 114.094V120H180.078V110.182H181.535V111.716H181.663C181.893 111.217 182.243 110.817 182.711 110.514C183.18 110.207 183.785 110.054 184.527 110.054C185.192 110.054 185.773 110.19 186.272 110.463C186.77 110.732 187.158 111.141 187.435 111.69C187.712 112.236 187.851 112.926 187.851 113.761V120H186.342V113.864C186.342 113.092 186.142 112.491 185.741 112.061C185.341 111.626 184.791 111.409 184.092 111.409C183.611 111.409 183.18 111.513 182.801 111.722C182.426 111.931 182.13 112.236 181.912 112.636C181.695 113.037 181.586 113.523 181.586 114.094ZM194.724 120.205C193.778 120.205 192.962 119.996 192.276 119.578C191.594 119.156 191.067 118.568 190.697 117.814C190.33 117.055 190.147 116.173 190.147 115.168C190.147 114.162 190.33 113.276 190.697 112.509C191.067 111.737 191.583 111.136 192.244 110.706C192.908 110.271 193.684 110.054 194.57 110.054C195.082 110.054 195.587 110.139 196.085 110.31C196.584 110.48 197.038 110.757 197.447 111.141C197.856 111.52 198.182 112.023 198.425 112.649C198.668 113.276 198.789 114.047 198.789 114.963V115.602H191.221V114.298H197.255C197.255 113.744 197.144 113.25 196.923 112.815C196.705 112.381 196.394 112.038 195.989 111.786C195.589 111.535 195.116 111.409 194.57 111.409C193.969 111.409 193.45 111.558 193.011 111.857C192.576 112.151 192.241 112.534 192.007 113.007C191.773 113.48 191.656 113.987 191.656 114.528V115.398C191.656 116.139 191.783 116.768 192.039 117.283C192.299 117.795 192.659 118.185 193.119 118.453C193.58 118.717 194.114 118.849 194.724 118.849C195.12 118.849 195.478 118.794 195.798 118.683C196.121 118.568 196.401 118.398 196.635 118.172C196.869 117.942 197.05 117.656 197.178 117.315L198.636 117.724C198.482 118.219 198.224 118.653 197.862 119.028C197.5 119.399 197.053 119.689 196.52 119.898C195.987 120.102 195.388 120.205 194.724 120.205ZM202.592 106.909V120H201.084V106.909H202.592ZM214.688 110.182V111.46H209.6V110.182H214.688ZM211.083 107.83H212.591V117.188C212.591 117.614 212.653 117.933 212.776 118.146C212.904 118.355 213.066 118.496 213.262 118.568C213.463 118.636 213.673 118.67 213.895 118.67C214.061 118.67 214.198 118.662 214.304 118.645C214.411 118.624 214.496 118.607 214.56 118.594L214.867 119.949C214.764 119.987 214.622 120.026 214.438 120.064C214.255 120.107 214.023 120.128 213.742 120.128C213.316 120.128 212.898 120.036 212.489 119.853C212.084 119.67 211.747 119.391 211.479 119.016C211.215 118.641 211.083 118.168 211.083 117.597V107.83ZM220.84 120.205C219.954 120.205 219.176 119.994 218.507 119.572C217.842 119.15 217.322 118.56 216.947 117.801C216.577 117.043 216.391 116.156 216.391 115.142C216.391 114.119 216.577 113.227 216.947 112.464C217.322 111.701 217.842 111.109 218.507 110.687C219.176 110.265 219.954 110.054 220.84 110.054C221.726 110.054 222.502 110.265 223.167 110.687C223.836 111.109 224.356 111.701 224.726 112.464C225.101 113.227 225.289 114.119 225.289 115.142C225.289 116.156 225.101 117.043 224.726 117.801C224.356 118.56 223.836 119.15 223.167 119.572C222.502 119.994 221.726 120.205 220.84 120.205ZM220.84 118.849C221.513 118.849 222.067 118.677 222.502 118.332C222.937 117.987 223.258 117.533 223.467 116.97C223.676 116.408 223.78 115.798 223.78 115.142C223.78 114.486 223.676 113.874 223.467 113.308C223.258 112.741 222.937 112.283 222.502 111.933C222.067 111.584 221.513 111.409 220.84 111.409C220.167 111.409 219.613 111.584 219.178 111.933C218.743 112.283 218.422 112.741 218.213 113.308C218.004 113.874 217.9 114.486 217.9 115.142C217.9 115.798 218.004 116.408 218.213 116.97C218.422 117.533 218.743 117.987 219.178 118.332C219.613 118.677 220.167 118.849 220.84 118.849ZM234.163 114.094V120H232.654V110.182H234.112V111.716H234.239C234.469 111.217 234.819 110.817 235.288 110.514C235.756 110.207 236.362 110.054 237.103 110.054C237.768 110.054 238.349 110.19 238.848 110.463C239.347 110.732 239.734 111.141 240.011 111.69C240.288 112.236 240.427 112.926 240.427 113.761V120H238.918V113.864C238.918 113.092 238.718 112.491 238.317 112.061C237.917 111.626 237.367 111.409 236.668 111.409C236.187 111.409 235.756 111.513 235.377 111.722C235.002 111.931 234.706 112.236 234.489 112.636C234.271 113.037 234.163 113.523 234.163 114.094ZM247.172 120.205C246.286 120.205 245.508 119.994 244.839 119.572C244.174 119.15 243.654 118.56 243.279 117.801C242.909 117.043 242.723 116.156 242.723 115.142C242.723 114.119 242.909 113.227 243.279 112.464C243.654 111.701 244.174 111.109 244.839 110.687C245.508 110.265 246.286 110.054 247.172 110.054C248.058 110.054 248.834 110.265 249.499 110.687C250.168 111.109 250.688 111.701 251.058 112.464C251.433 113.227 251.621 114.119 251.621 115.142C251.621 116.156 251.433 117.043 251.058 117.801C250.688 118.56 250.168 119.15 249.499 119.572C248.834 119.994 248.058 120.205 247.172 120.205ZM247.172 118.849C247.845 118.849 248.399 118.677 248.834 118.332C249.269 117.987 249.59 117.533 249.799 116.97C250.008 116.408 250.112 115.798 250.112 115.142C250.112 114.486 250.008 113.874 249.799 113.308C249.59 112.741 249.269 112.283 248.834 111.933C248.399 111.584 247.845 111.409 247.172 111.409C246.499 111.409 245.945 111.584 245.51 111.933C245.075 112.283 244.754 112.741 244.545 113.308C244.336 113.874 244.232 114.486 244.232 115.142C244.232 115.798 244.336 116.408 244.545 116.97C244.754 117.533 245.075 117.987 245.51 118.332C245.945 118.677 246.499 118.849 247.172 118.849ZM258.194 110.182V111.46H253.105V110.182H258.194ZM254.588 107.83H256.097V117.188C256.097 117.614 256.159 117.933 256.282 118.146C256.41 118.355 256.572 118.496 256.768 118.568C256.968 118.636 257.179 118.67 257.401 118.67C257.567 118.67 257.703 118.662 257.81 118.645C257.917 118.624 258.002 118.607 258.066 118.594L258.373 119.949C258.27 119.987 258.127 120.026 257.944 120.064C257.761 120.107 257.529 120.128 257.248 120.128C256.821 120.128 256.404 120.036 255.995 119.853C255.59 119.67 255.253 119.391 254.985 119.016C254.721 118.641 254.588 118.168 254.588 117.597V107.83ZM265.525 120V110.182H266.983V111.716H267.11C267.315 111.192 267.645 110.785 268.101 110.495C268.557 110.201 269.105 110.054 269.744 110.054C270.392 110.054 270.931 110.201 271.361 110.495C271.796 110.785 272.135 111.192 272.377 111.716H272.48C272.731 111.209 273.108 110.806 273.611 110.508C274.114 110.205 274.717 110.054 275.42 110.054C276.298 110.054 277.016 110.329 277.574 110.879C278.132 111.424 278.412 112.274 278.412 113.429V120H276.903V113.429C276.903 112.705 276.705 112.187 276.309 111.876C275.912 111.565 275.446 111.409 274.909 111.409C274.218 111.409 273.684 111.618 273.304 112.036C272.925 112.449 272.735 112.973 272.735 113.608V120H271.201V113.276C271.201 112.717 271.02 112.268 270.658 111.927C270.296 111.582 269.829 111.409 269.258 111.409C268.866 111.409 268.5 111.513 268.159 111.722C267.822 111.931 267.549 112.221 267.341 112.592C267.136 112.958 267.034 113.382 267.034 113.864V120H265.525ZM281.17 120V110.182H282.678V120H281.17ZM281.937 108.545C281.643 108.545 281.389 108.445 281.176 108.245C280.967 108.045 280.863 107.804 280.863 107.523C280.863 107.241 280.967 107.001 281.176 106.8C281.389 106.6 281.643 106.5 281.937 106.5C282.231 106.5 282.482 106.6 282.691 106.8C282.904 107.001 283.011 107.241 283.011 107.523C283.011 107.804 282.904 108.045 282.691 108.245C282.482 108.445 282.231 108.545 281.937 108.545ZM292.396 112.381L291.041 112.764C290.955 112.538 290.83 112.319 290.664 112.106C290.502 111.888 290.28 111.71 289.999 111.569C289.718 111.428 289.357 111.358 288.919 111.358C288.318 111.358 287.817 111.496 287.416 111.773C287.02 112.046 286.822 112.393 286.822 112.815C286.822 113.19 286.958 113.487 287.231 113.704C287.504 113.921 287.93 114.102 288.509 114.247L289.967 114.605C290.845 114.818 291.499 115.144 291.929 115.583C292.36 116.018 292.575 116.578 292.575 117.264C292.575 117.827 292.413 118.33 292.089 118.773C291.769 119.216 291.322 119.565 290.747 119.821C290.171 120.077 289.502 120.205 288.74 120.205C287.738 120.205 286.909 119.987 286.253 119.553C285.597 119.118 285.181 118.483 285.007 117.648L286.438 117.29C286.575 117.818 286.833 118.214 287.212 118.479C287.595 118.743 288.096 118.875 288.714 118.875C289.417 118.875 289.975 118.726 290.389 118.428C290.806 118.125 291.015 117.763 291.015 117.341C291.015 117 290.896 116.714 290.657 116.484C290.419 116.25 290.052 116.075 289.558 115.96L287.921 115.577C287.022 115.364 286.362 115.033 285.94 114.586C285.522 114.134 285.313 113.57 285.313 112.892C285.313 112.338 285.469 111.848 285.78 111.422C286.095 110.996 286.524 110.661 287.065 110.418C287.61 110.175 288.228 110.054 288.919 110.054C289.89 110.054 290.653 110.267 291.207 110.693C291.765 111.119 292.161 111.682 292.396 112.381ZM301.8 112.381L300.445 112.764C300.36 112.538 300.234 112.319 300.068 112.106C299.906 111.888 299.684 111.71 299.403 111.569C299.122 111.428 298.762 111.358 298.323 111.358C297.722 111.358 297.221 111.496 296.821 111.773C296.424 112.046 296.226 112.393 296.226 112.815C296.226 113.19 296.363 113.487 296.635 113.704C296.908 113.921 297.334 114.102 297.914 114.247L299.371 114.605C300.249 114.818 300.903 115.144 301.333 115.583C301.764 116.018 301.979 116.578 301.979 117.264C301.979 117.827 301.817 118.33 301.493 118.773C301.174 119.216 300.726 119.565 300.151 119.821C299.576 120.077 298.907 120.205 298.144 120.205C297.142 120.205 296.314 119.987 295.657 119.553C295.001 119.118 294.586 118.483 294.411 117.648L295.843 117.29C295.979 117.818 296.237 118.214 296.616 118.479C297 118.743 297.5 118.875 298.118 118.875C298.821 118.875 299.38 118.726 299.793 118.428C300.211 118.125 300.419 117.763 300.419 117.341C300.419 117 300.3 116.714 300.061 116.484C299.823 116.25 299.456 116.075 298.962 115.96L297.326 115.577C296.426 115.364 295.766 115.033 295.344 114.586C294.926 114.134 294.718 113.57 294.718 112.892C294.718 112.338 294.873 111.848 295.184 111.422C295.5 110.996 295.928 110.661 296.469 110.418C297.015 110.175 297.632 110.054 298.323 110.054C299.294 110.054 300.057 110.267 300.611 110.693C301.169 111.119 301.566 111.682 301.8 112.381ZM312.202 120.23C311.579 120.23 311.015 120.113 310.508 119.879C310.001 119.64 309.598 119.297 309.3 118.849C309.001 118.398 308.852 117.852 308.852 117.213C308.852 116.651 308.963 116.195 309.184 115.845C309.406 115.491 309.702 115.214 310.073 115.014C310.444 114.814 310.853 114.665 311.3 114.567C311.752 114.464 312.206 114.384 312.662 114.324C313.258 114.247 313.742 114.19 314.113 114.151C314.488 114.109 314.76 114.038 314.931 113.94C315.106 113.842 315.193 113.672 315.193 113.429V113.378C315.193 112.747 315.02 112.257 314.675 111.908C314.334 111.558 313.817 111.384 313.122 111.384C312.402 111.384 311.837 111.541 311.428 111.857C311.019 112.172 310.731 112.509 310.565 112.866L309.133 112.355C309.389 111.759 309.73 111.294 310.156 110.962C310.586 110.625 311.055 110.391 311.562 110.259C312.074 110.122 312.577 110.054 313.071 110.054C313.386 110.054 313.748 110.092 314.157 110.169C314.571 110.241 314.969 110.393 315.353 110.623C315.741 110.853 316.062 111.2 316.318 111.665C316.574 112.129 316.702 112.751 316.702 113.531V120H315.193V118.67H315.116C315.014 118.884 314.844 119.112 314.605 119.354C314.366 119.597 314.049 119.804 313.653 119.974C313.256 120.145 312.773 120.23 312.202 120.23ZM312.432 118.875C313.028 118.875 313.531 118.758 313.94 118.523C314.354 118.289 314.665 117.987 314.873 117.616C315.086 117.245 315.193 116.855 315.193 116.446V115.065C315.129 115.142 314.988 115.212 314.771 115.276C314.558 115.336 314.311 115.389 314.03 115.436C313.753 115.479 313.482 115.517 313.218 115.551C312.958 115.581 312.747 115.607 312.585 115.628C312.193 115.679 311.827 115.762 311.486 115.877C311.149 115.988 310.876 116.156 310.667 116.382C310.463 116.604 310.361 116.906 310.361 117.29C310.361 117.814 310.555 118.21 310.942 118.479C311.334 118.743 311.831 118.875 312.432 118.875ZM320.963 114.094V120H319.455V110.182H320.912V111.716H321.04C321.27 111.217 321.62 110.817 322.088 110.514C322.557 110.207 323.162 110.054 323.904 110.054C324.569 110.054 325.15 110.19 325.649 110.463C326.147 110.732 326.535 111.141 326.812 111.69C327.089 112.236 327.228 112.926 327.228 113.761V120H325.719V113.864C325.719 113.092 325.519 112.491 325.118 112.061C324.718 111.626 324.168 111.409 323.469 111.409C322.988 111.409 322.557 111.513 322.178 111.722C321.803 111.931 321.507 112.236 321.289 112.636C321.072 113.037 320.963 113.523 320.963 114.094ZM330.604 123.682C330.349 123.682 330.121 123.661 329.92 123.618C329.72 123.58 329.581 123.541 329.505 123.503L329.888 122.173C330.255 122.267 330.579 122.301 330.86 122.276C331.141 122.25 331.39 122.124 331.608 121.898C331.829 121.677 332.032 121.317 332.215 120.818L332.496 120.051L328.866 110.182H330.502L333.212 118.006H333.314L336.025 110.182H337.661L333.493 121.432C333.306 121.939 333.074 122.359 332.797 122.691C332.52 123.028 332.198 123.277 331.831 123.439C331.469 123.601 331.06 123.682 330.604 123.682ZM343.922 110.182V111.46H338.834V110.182H343.922ZM340.317 107.83H341.825V117.188C341.825 117.614 341.887 117.933 342.011 118.146C342.139 118.355 342.301 118.496 342.497 118.568C342.697 118.636 342.908 118.67 343.129 118.67C343.296 118.67 343.432 118.662 343.539 118.645C343.645 118.624 343.73 118.607 343.794 118.594L344.101 119.949C343.999 119.987 343.856 120.026 343.673 120.064C343.49 120.107 343.257 120.128 342.976 120.128C342.55 120.128 342.132 120.036 341.723 119.853C341.318 119.67 340.982 119.391 340.713 119.016C340.449 118.641 340.317 118.168 340.317 117.597V107.83ZM347.911 114.094V120H346.402V106.909H347.911V111.716H348.039C348.269 111.209 348.614 110.806 349.074 110.508C349.539 110.205 350.156 110.054 350.928 110.054C351.597 110.054 352.183 110.188 352.686 110.457C353.188 110.721 353.578 111.128 353.855 111.678C354.137 112.223 354.277 112.918 354.277 113.761V120H352.769V113.864C352.769 113.084 352.566 112.481 352.161 112.055C351.761 111.624 351.205 111.409 350.493 111.409C349.999 111.409 349.556 111.513 349.164 111.722C348.776 111.931 348.469 112.236 348.243 112.636C348.021 113.037 347.911 113.523 347.911 114.094ZM357.037 120V110.182H358.545V120H357.037ZM357.804 108.545C357.51 108.545 357.256 108.445 357.043 108.245C356.835 108.045 356.73 107.804 356.73 107.523C356.73 107.241 356.835 107.001 357.043 106.8C357.256 106.6 357.51 106.5 357.804 106.5C358.098 106.5 358.349 106.6 358.558 106.8C358.771 107.001 358.878 107.241 358.878 107.523C358.878 107.804 358.771 108.045 358.558 108.245C358.349 108.445 358.098 108.545 357.804 108.545ZM362.817 114.094V120H361.308V110.182H362.766V111.716H362.894C363.124 111.217 363.473 110.817 363.942 110.514C364.411 110.207 365.016 110.054 365.757 110.054C366.422 110.054 367.004 110.19 367.502 110.463C368.001 110.732 368.389 111.141 368.666 111.69C368.943 112.236 369.081 112.926 369.081 113.761V120H367.573V113.864C367.573 113.092 367.372 112.491 366.972 112.061C366.571 111.626 366.021 111.409 365.323 111.409C364.841 111.409 364.411 111.513 364.031 111.722C363.656 111.931 363.36 112.236 363.143 112.636C362.926 113.037 362.817 113.523 362.817 114.094ZM375.801 123.886C375.072 123.886 374.446 123.793 373.922 123.605C373.397 123.422 372.961 123.179 372.611 122.876C372.266 122.578 371.991 122.259 371.787 121.918L372.988 121.074C373.125 121.253 373.297 121.457 373.506 121.688C373.715 121.922 374 122.124 374.363 122.295C374.729 122.469 375.208 122.557 375.801 122.557C376.593 122.557 377.248 122.365 377.763 121.982C378.279 121.598 378.537 120.997 378.537 120.179V118.185H378.409C378.298 118.364 378.14 118.585 377.936 118.849C377.735 119.109 377.446 119.342 377.066 119.546C376.691 119.746 376.184 119.847 375.545 119.847C374.752 119.847 374.041 119.659 373.41 119.284C372.784 118.909 372.287 118.364 371.921 117.648C371.559 116.932 371.377 116.062 371.377 115.04C371.377 114.034 371.554 113.158 371.908 112.413C372.262 111.663 372.754 111.083 373.385 110.674C374.015 110.261 374.744 110.054 375.571 110.054C376.21 110.054 376.717 110.161 377.092 110.374C377.471 110.582 377.761 110.821 377.961 111.089C378.166 111.354 378.324 111.571 378.434 111.741H378.588V110.182H380.045V120.281C380.045 121.125 379.853 121.811 379.47 122.339C379.091 122.872 378.579 123.262 377.936 123.509C377.297 123.761 376.585 123.886 375.801 123.886ZM375.75 118.491C376.355 118.491 376.866 118.353 377.284 118.076C377.701 117.799 378.019 117.401 378.236 116.881C378.453 116.361 378.562 115.739 378.562 115.014C378.562 114.307 378.456 113.683 378.243 113.141C378.029 112.6 377.714 112.176 377.297 111.869C376.879 111.562 376.363 111.409 375.75 111.409C375.11 111.409 374.578 111.571 374.152 111.895C373.73 112.219 373.412 112.653 373.199 113.199C372.99 113.744 372.886 114.349 372.886 115.014C372.886 115.696 372.993 116.299 373.206 116.823C373.423 117.343 373.743 117.752 374.164 118.05C374.591 118.344 375.119 118.491 375.75 118.491ZM384.801 106.909L384.673 116.318H383.19L383.062 106.909H384.801ZM383.931 120.102C383.616 120.102 383.346 119.989 383.12 119.763C382.894 119.538 382.781 119.267 382.781 118.952C382.781 118.636 382.894 118.366 383.12 118.14C383.346 117.914 383.616 117.801 383.931 117.801C384.247 117.801 384.517 117.914 384.743 118.14C384.969 118.366 385.082 118.636 385.082 118.952C385.082 119.161 385.029 119.352 384.922 119.527C384.82 119.702 384.681 119.842 384.507 119.949C384.336 120.051 384.145 120.102 383.931 120.102Z" fill="#B8C7DD"/>
<path d="M244.312 138H90.4152C75.8265 138 64 150.057 64 164.931C64 179.804 75.8265 191.861 90.4152 191.861H244.312C258.901 191.861 270.727 179.804 270.727 164.931C270.727 150.057 258.901 138 244.312 138Z" fill="url(#paint1_linear_0_1)"/>
<path d="M104.247 153.807L81.6298 162.971C80.6825 163.347 80.6825 164.854 81.6298 165.231L84.4718 166.235L94.7739 162.971L88.3795 170.629L89.4452 174.018C89.8005 175.022 90.9846 175.148 91.5767 174.269L94.7739 169.875L100.458 174.395C101.287 175.022 102.471 174.52 102.708 173.39L106.615 154.434C106.852 153.304 106.095 152.91 104.247 153.807Z" fill="white"/>
<path d="M130.321 155.801H133.361L131.684 165.964C131.523 166.906 131.183 167.721 130.662 168.407C130.141 169.089 129.48 169.617 128.68 169.991C127.88 170.36 126.988 170.545 126.003 170.545C125.117 170.545 124.341 170.389 123.673 170.076C123.01 169.764 122.52 169.29 122.203 168.656C121.89 168.021 121.812 167.221 121.969 166.255H125.008C124.961 166.648 124.985 166.98 125.079 167.25C125.179 167.519 125.347 167.725 125.584 167.867C125.82 168.009 126.116 168.08 126.471 168.08C126.855 168.08 127.196 167.998 127.494 167.832C127.792 167.666 128.039 167.422 128.233 167.1C128.432 166.778 128.571 166.385 128.652 165.921L130.321 155.801ZM138.375 170.559C137.262 170.559 136.341 170.322 135.612 169.849C134.883 169.371 134.369 168.708 134.071 167.86C133.777 167.008 133.723 166.016 133.907 164.884C134.087 163.767 134.461 162.789 135.03 161.951C135.598 161.113 136.32 160.462 137.196 159.998C138.072 159.529 139.059 159.295 140.157 159.295C141.265 159.295 142.184 159.534 142.913 160.012C143.642 160.486 144.156 161.149 144.454 162.001C144.753 162.853 144.809 163.845 144.625 164.977C144.44 166.089 144.061 167.065 143.488 167.903C142.916 168.741 142.193 169.394 141.322 169.863C140.451 170.327 139.469 170.559 138.375 170.559ZM138.673 168.215C139.184 168.215 139.637 168.071 140.03 167.782C140.427 167.489 140.756 167.091 141.017 166.589C141.282 166.082 141.467 165.509 141.571 164.87C141.675 164.241 141.682 163.682 141.592 163.194C141.502 162.702 141.313 162.313 141.024 162.029C140.74 161.745 140.349 161.603 139.852 161.603C139.341 161.603 138.886 161.75 138.488 162.044C138.091 162.332 137.762 162.73 137.501 163.237C137.241 163.743 137.059 164.319 136.954 164.963C136.855 165.588 136.848 166.146 136.933 166.639C137.018 167.126 137.205 167.512 137.494 167.796C137.783 168.076 138.176 168.215 138.673 168.215ZM145.697 170.346L147.515 159.437H150.541L148.723 170.346H145.697ZM149.341 158.017C148.891 158.017 148.519 157.867 148.226 157.569C147.937 157.266 147.818 156.906 147.871 156.49C147.923 156.063 148.126 155.704 148.481 155.41C148.836 155.112 149.239 154.963 149.689 154.963C150.139 154.963 150.506 155.112 150.79 155.41C151.074 155.704 151.192 156.063 151.145 156.49C151.097 156.906 150.896 157.266 150.541 157.569C150.191 157.867 149.791 158.017 149.341 158.017ZM155.237 164.039L154.186 170.346H151.168L152.986 159.437H155.862L155.55 161.362H155.671C156.016 160.723 156.504 160.218 157.134 159.849C157.768 159.48 158.49 159.295 159.3 159.295C160.057 159.295 160.69 159.461 161.196 159.792C161.708 160.124 162.067 160.595 162.276 161.205C162.489 161.816 162.524 162.548 162.382 163.4L161.218 170.346H158.192L159.264 163.94C159.373 163.272 159.288 162.751 159.009 162.377C158.734 161.999 158.291 161.809 157.681 161.809C157.273 161.809 156.899 161.897 156.558 162.072C156.218 162.247 155.931 162.503 155.699 162.839C155.472 163.17 155.318 163.571 155.237 164.039ZM182.663 160.893H179.595C179.604 160.486 179.552 160.126 179.438 159.813C179.325 159.496 179.154 159.226 178.927 159.004C178.704 158.781 178.432 158.613 178.11 158.5C177.788 158.381 177.426 158.322 177.024 158.322C176.247 158.322 175.535 158.516 174.886 158.904C174.237 159.293 173.69 159.856 173.245 160.595C172.8 161.329 172.492 162.216 172.322 163.258C172.156 164.262 172.166 165.102 172.35 165.779C172.535 166.456 172.862 166.968 173.33 167.313C173.804 167.654 174.393 167.825 175.099 167.825C175.535 167.825 175.949 167.77 176.342 167.661C176.735 167.548 177.092 167.387 177.414 167.178C177.741 166.965 178.025 166.707 178.267 166.404C178.513 166.101 178.704 165.758 178.842 165.375H181.931C181.737 166.042 181.434 166.686 181.022 167.306C180.615 167.927 180.111 168.481 179.509 168.968C178.908 169.451 178.224 169.835 177.457 170.119C176.69 170.403 175.849 170.545 174.936 170.545C173.615 170.545 172.481 170.242 171.534 169.636C170.591 169.03 169.912 168.156 169.495 167.015C169.079 165.874 169 164.499 169.261 162.889C169.521 161.331 170.03 160.01 170.788 158.926C171.55 157.837 172.476 157.01 173.565 156.447C174.659 155.884 175.828 155.602 177.073 155.602C177.94 155.602 178.723 155.72 179.424 155.957C180.125 156.194 180.722 156.539 181.214 156.994C181.711 157.444 182.085 157.995 182.336 158.649C182.587 159.302 182.696 160.05 182.663 160.893ZM187.347 164.039L186.296 170.346H183.277L185.692 155.801H188.625L187.716 161.362H187.837C188.187 160.718 188.668 160.214 189.279 159.849C189.889 159.48 190.611 159.295 191.445 159.295C192.202 159.295 192.834 159.461 193.341 159.792C193.852 160.119 194.215 160.59 194.428 161.205C194.641 161.816 194.676 162.548 194.534 163.4L193.369 170.346H190.351L191.416 163.94C191.525 163.268 191.438 162.744 191.154 162.37C190.874 161.996 190.429 161.809 189.818 161.809C189.406 161.809 189.028 161.897 188.682 162.072C188.336 162.247 188.045 162.503 187.808 162.839C187.576 163.17 187.423 163.571 187.347 164.039ZM198.819 170.552C198.127 170.552 197.528 170.431 197.022 170.19C196.52 169.944 196.151 169.579 195.914 169.096C195.677 168.613 195.618 168.014 195.736 167.299C195.84 166.693 196.037 166.187 196.326 165.779C196.619 165.367 196.977 165.036 197.398 164.785C197.82 164.534 198.286 164.342 198.797 164.21C199.314 164.077 199.846 163.987 200.395 163.94C201.03 163.874 201.546 163.81 201.944 163.748C202.346 163.687 202.647 163.599 202.846 163.485C203.045 163.367 203.165 163.192 203.208 162.96V162.917C203.279 162.472 203.196 162.126 202.959 161.88C202.727 161.629 202.356 161.504 201.844 161.504C201.305 161.504 200.845 161.622 200.466 161.859C200.092 162.096 199.825 162.396 199.664 162.761L196.908 162.534C197.154 161.871 197.526 161.298 198.023 160.815C198.525 160.327 199.129 159.953 199.834 159.693C200.54 159.428 201.331 159.295 202.207 159.295C202.813 159.295 203.378 159.366 203.904 159.508C204.434 159.65 204.891 159.87 205.275 160.169C205.663 160.467 205.942 160.85 206.113 161.319C206.288 161.783 206.323 162.339 206.219 162.988L204.991 170.346H202.121L202.377 168.833H202.292C202.06 169.174 201.776 169.475 201.439 169.735C201.103 169.991 200.717 170.192 200.282 170.339C199.846 170.481 199.358 170.552 198.819 170.552ZM200.033 168.464C200.474 168.464 200.878 168.376 201.248 168.201C201.622 168.021 201.93 167.78 202.171 167.477C202.417 167.174 202.573 166.83 202.64 166.447L202.824 165.289C202.73 165.351 202.592 165.405 202.412 165.453C202.237 165.5 202.046 165.545 201.837 165.588C201.634 165.625 201.428 165.661 201.219 165.694C201.011 165.723 200.824 165.751 200.658 165.779C200.294 165.831 199.967 165.914 199.678 166.028C199.389 166.142 199.155 166.295 198.975 166.49C198.795 166.679 198.684 166.916 198.641 167.2C198.575 167.612 198.672 167.927 198.932 168.144C199.198 168.357 199.564 168.464 200.033 168.464ZM211.429 164.039L210.378 170.346H207.359L209.177 159.437H212.054L211.741 161.362H211.862C212.208 160.723 212.695 160.218 213.325 159.849C213.96 159.48 214.682 159.295 215.491 159.295C216.249 159.295 216.881 159.461 217.388 159.792C217.899 160.124 218.259 160.595 218.467 161.205C218.68 161.816 218.716 162.548 218.574 163.4L217.409 170.346H214.383L215.456 163.94C215.565 163.272 215.479 162.751 215.2 162.377C214.925 161.999 214.483 161.809 213.872 161.809C213.465 161.809 213.091 161.897 212.75 162.072C212.409 162.247 212.122 162.503 211.89 162.839C211.663 163.17 211.509 163.571 211.429 164.039ZM223.87 164.039L222.819 170.346H219.801L221.619 159.437H224.495L224.183 161.362H224.303C224.649 160.723 225.137 160.218 225.767 159.849C226.401 159.48 227.123 159.295 227.933 159.295C228.69 159.295 229.322 159.461 229.829 159.792C230.34 160.124 230.7 160.595 230.909 161.205C231.122 161.816 231.157 162.548 231.015 163.4L229.85 170.346H226.825L227.897 163.94C228.006 163.272 227.921 162.751 227.642 162.377C227.367 161.999 226.924 161.809 226.313 161.809C225.906 161.809 225.532 161.897 225.191 162.072C224.85 162.247 224.564 162.503 224.332 162.839C224.105 163.17 223.951 163.571 223.87 164.039ZM237.164 170.559C236.046 170.559 235.121 170.332 234.387 169.877C233.653 169.418 233.137 168.769 232.839 167.931C232.545 167.089 232.495 166.092 232.689 164.941C232.879 163.819 233.26 162.834 233.833 161.987C234.411 161.139 235.135 160.479 236.006 160.005C236.877 159.532 237.848 159.295 238.918 159.295C239.638 159.295 240.289 159.411 240.871 159.643C241.458 159.87 241.946 160.216 242.334 160.68C242.723 161.139 242.988 161.714 243.13 162.406C243.277 163.097 243.274 163.907 243.123 164.835L242.988 165.666H233.783L234.074 163.791H240.438C240.509 163.355 240.481 162.969 240.353 162.633C240.225 162.297 240.012 162.034 239.714 161.845C239.415 161.651 239.048 161.553 238.613 161.553C238.168 161.553 237.751 161.662 237.363 161.88C236.974 162.098 236.648 162.384 236.383 162.74C236.122 163.09 235.954 163.471 235.878 163.883L235.545 165.744C235.45 166.317 235.469 166.793 235.601 167.171C235.739 167.55 235.975 167.834 236.312 168.024C236.648 168.208 237.074 168.301 237.59 168.301C237.926 168.301 238.241 168.253 238.535 168.159C238.833 168.064 239.098 167.924 239.33 167.74C239.562 167.55 239.751 167.316 239.898 167.036L242.661 167.221C242.405 167.893 242.017 168.481 241.496 168.982C240.975 169.48 240.348 169.868 239.614 170.147C238.885 170.422 238.068 170.559 237.164 170.559ZM249.634 155.801L247.219 170.346H244.193L246.608 155.801H249.634Z" fill="white"/>
<path d="M740.029 143.127C740.537 142.961 741.043 142.958 741.516 143.097C741.995 143.239 742.495 143.544 742.932 144.058C743.373 144.577 743.723 145.282 743.881 146.121C744.04 146.962 743.988 147.851 743.73 148.676L743.727 148.687L696.976 299.189L696.975 299.191C696.738 299.955 696.347 300.593 695.882 301.066C695.421 301.537 694.916 301.817 694.443 301.947C693.975 302.076 693.51 302.068 693.07 301.936C692.682 301.819 692.28 301.595 691.909 301.238L691.752 301.076L655.301 261.132L651.863 257.362L648.164 260.877L630.625 277.543L633.164 246.312L696.638 185.996C697.271 185.455 697.795 184.819 698.199 184.126C698.656 183.342 698.961 182.488 699.111 181.614C699.243 180.848 699.255 180.064 699.147 179.29L699.094 178.96L699.026 178.631C698.874 177.975 698.632 177.334 698.298 176.729L698.124 176.43L697.934 176.137C697.474 175.464 696.893 174.856 696.199 174.361C695.405 173.793 694.488 173.389 693.499 173.197C692.632 173.028 691.749 173.03 690.893 173.195L690.529 173.276C689.679 173.489 688.896 173.856 688.208 174.339L604.204 226.934L569.423 206.655L569.423 206.654L569.226 206.529C568.77 206.212 568.335 205.721 568.017 205.047C567.652 204.274 567.484 203.34 567.583 202.377C567.681 201.413 568.033 200.543 568.539 199.874C569.041 199.21 569.642 198.811 570.205 198.627L570.208 198.627L740.026 143.128L740.029 143.127Z" fill="#F1F3F4" stroke="#2AABEE" stroke-width="10"/>
<defs>
<linearGradient id="paint0_linear_0_1" x1="32" y1="28" x2="11784.1" y2="40626.1" gradientUnits="userSpaceOnUse">
<stop stop-color="#0E1A2B"/>
<stop offset="1" stop-color="#0A1322"/>
</linearGradient>
<linearGradient id="paint1_linear_0_1" x1="64" y1="138" x2="64" y2="5524.14" gradientUnits="userSpaceOnUse">
<stop stop-color="#3BB6FF"/>
<stop offset="1" stop-color="#1E8AD6"/>
</linearGradient>
</defs>
</svg>
